# xmcd CD database file
#
# Track frame offsets:
#	150
#	31466
#	51214
#	74621
#	95010
#	123183
#
# Disc length: 1984 seconds
#
# Revision: 0
# Processed by: cddbd v1.5.2PL0 Copyright (c) Steve Scherf et al.
# Submitted via: CDex 1.51
#
DISCID=5207be06
DTITLE=Richard Güth and the L.A. Blues - Live in Dortmund
DYEAR=1900
DGENRE=Blues
TTITLE0=Me and my woman
TTITLE1=Prison of love
TTITLE2=Nowhere to go
TTITLE3=I'm a fool
TTITLE4=Help the poor
TTITLE5=I'm a real man
EXTD=
EXTT0=
EXTT1=
EXTT2=
EXTT3=
EXTT4=
EXTT5=
PLAYORDER=
